<svg xmlns="http://www.w3.org/2000/svg" viewBox="0 0 999.33 998.99"><defs><style>.cls-1{fill:none;}.cls-2{fill:#555151;}.cls-3{fill:#fff;}.cls-4{fill:#eb5b08;}</style></defs><title>logo-ashaFichier 4</title><g id="Calque_2" data-name="Calque 2"><g id="Calque_1-2" data-name="Calque 1"><path class="cls-1" d="M470.71,245.76q5-.58,10.07-1Q475.73,245.17,470.71,245.76Z"/><path class="cls-1" d="M470.71,245.76q-10.05,1.17-19.9,3.13Q460.67,246.94,470.71,245.76Z"/><path class="cls-1" d="M450.81,248.89c-64,12.64-121.38,49.12-155.63,98.83h0C329.43,298,386.77,261.53,450.81,248.89Z"/><path class="cls-2" d="M504.51,0C368.09-1.36,248.73,46.33,150.86,142.19,52.4,238.63,1.43,357.55,0,494.91c-1.41,138,47.36,258.37,145.11,356.45,94.44,94.76,210.07,145,343.91,147.53,288.31,5.39,509.21-225.28,510.28-516.3C997,363,950.28,244.3,853.63,147.4,757.71,51.24,640,1.41,504.51,0ZM969.86,501.69c-1.76,258-207.6,466.7-469.85,468.58C237.67,967.85,41.58,763.51,30.13,525.67,23.18,381.27,72.79,257.94,176.66,158c82.18-79.11,182-121.84,296-127.71,142.76-7.35,265.44,40.9,365.14,142.88C926.5,263.92,970.73,374.94,969.86,501.69Z"/><path class="cls-3" d="M472.62,30.26c-114,5.87-213.78,48.6-296,127.71-103.87,100-153.48,223.3-146.53,367.7C41.58,763.51,237.67,967.85,500,970.27c262.25-1.88,468.09-210.55,469.85-468.58.87-126.75-43.36-237.77-132.1-328.55C738.06,71.16,615.38,22.91,472.62,30.26ZM220.29,269.39c5,8,10.35,11.9,19.22,6.6a56.33,56.33,0,0,1,12.67-5.71,14.65,14.65,0,0,1,9.17.17,39.5,39.5,0,0,1,20.5,18.74c4.16,8.24.15,19.54-8.13,24.76-9.37,5.92-20.25,4.23-27.47-4.49l7-8.27c1.87,1.27,3.31,2.39,4.87,3.27,4.05,2.27,8.12,1.42,11.14-2.19,3.2-3.84,3.27-7.36.18-11.23a28.51,28.51,0,0,0-2.35-2.57c-8.55-8.31-9.83-8.42-20.36-3.14-3.68,1.85-7.51,3.92-11.48,4.57-10.79,1.75-18.09-4.49-23.78-12.46-6.66-9.35-4.79-20.89,3.74-27.66,9.07-7.19,20.19-5.82,29.61,3.85l-7.33,8.12c-2.72-1.45-5.1-2.92-7.64-4a6.49,6.49,0,0,0-8.58,3.05C220,263.22,219.06,267.42,220.29,269.39ZM267.67,225c4.95,8.92,8,10.23,17.73,7.53,1-.27,1.89-.63,2.84-.92,6.68-2,13.56-5,20.07-.17,8.19,6.08,14.54,13.84,16.51,24.11,1.54,8-4,16.13-13,20.4A19.92,19.92,0,0,1,289,271.62c-1.24-1.3-2.27-2.81-3.75-4.67l8.69-7c1.08.94,2.07,1.76,3,2.64,5,4.62,8.23,4.77,13.05.57,4.18-3.65,4.36-6.84.65-12.23-.66-.95-1.47-1.81-2.08-2.8-4.08-6.62-9.47-8.61-17-5.64a47.1,47.1,0,0,1-12.52,2.94c-11.2,1.14-16.82-6.73-21.45-14.88-4.36-7.64-4-15.67,1.79-22.86,7.84-9.71,23.35-10,31.18-.8,2.6,3.07,3.35,5.56-.72,7.93a48.07,48.07,0,0,0-4.63,3.46,62.6,62.6,0,0,0-6-5c-3.77-2.38-7.37-1.64-10.35,1.55C266,217.88,265.62,221.27,267.67,225Zm87.43-57c.77,7.13,4.38,15.28,13.89,14,3.76-.5,7.65,0,11.47-.1,4.82-.14,8.94,1.44,11.88,5.19,5.76,7.34,9.49,15.64,9.62,25.08.13,9-5.68,15.59-15.39,18.34-8.53,2.41-17.83-.86-22.29-8-1.29-2.07-2.19-4.4-3.6-7.27l10.38-4.48c.88,1.46,1.58,2.54,2.21,3.66,2.66,4.76,6.06,6.27,10.62,4.7,5.06-1.75,7.59-5.67,6.09-10.82a39.2,39.2,0,0,0-5.14-11.23c-1.28-1.85-4.23-3-6.62-3.5-3.05-.59-6.3-.29-9.46-.13-12.67.64-17.91-2-23.93-17.19-5.57-14.06,2.51-26.68,17.46-28.75,9.88-1.36,18.66,5.37,21.49,16.82l-9.61,4c-1.56-2.17-2.95-4.17-4.42-6.12-2.49-3.3-5.91-3.56-9.42-2.34A7.3,7.3,0,0,0,355.1,168ZM442,211.58l-11.3,2.69c-6-24-11.94-47.79-18-72.09l-14,3c-.81-3.47-1.58-6.75-2.46-10.48l38.58-9.68,3.22,10.43-13.88,3.79C430.08,163.2,436,187.08,442,211.58Zm25.5-10.19c.33,4.9-2.11,6.09-6.21,6-1.49,0-3,0-5.44,0,.39-4.58.67-9.26,1.21-13.91,2.6-22.6,5.33-45.19,7.86-67.8.36-3.25,1.27-5.14,4.84-5.45s5.82,0,7.12,4c6,18.65,12.31,37.2,18.51,55.78,2.47,7.39,5,14.78,7.58,22.57-11.26,2.29-11.19,2.27-14.37-8-.85-2.74-2.1-7.4-3.56-7.56-5-.52-10.16.49-15.23,1.13-.55.07-1.21,1.49-1.32,2.35C468,194.11,467.27,197.79,467.51,201.39Zm3.2,44.37q5-.58,10.07-1a251,251,0,0,1,30.56-.48q5.13.24,10.26.69a241.68,241.68,0,0,1,56.3,11.78c-5.08,3.49-9.88,2.63-14.76,1.22a227.43,227.43,0,0,0-63-8.46c-38.27,0-74.94,8.11-109.37,25-32.65,16-60.83,37.93-83.76,66.28-.41.5-.82,1-1.23,1.43-2.9,3.17-6.13,5.19-10.59,5.49h0c34.25-49.71,91.59-86.19,155.63-98.83Q460.67,246.94,470.71,245.76Zm43.62-42.88c.34-5.75.58-11.16,1-16.56,1.64-21,3.27-42,5.13-63,.16-1.82,2.4-5.13,2.88-5,3.3.94,8.17-2.7,9.76,3.71,3.56,14.33,7.64,28.53,11.53,42.78.48,1.74,1.1,3.43,1.65,5.15l1.33,0c1.29-16.46,2.58-32.93,3.91-49.81l11.59,1.13q-3.35,42.38-6.65,84.34c-9.45,1.22-10.76.4-13-7.61q-6.25-22-12.48-43.94h-1.34c-1.26,16.46-2.52,32.93-3.82,50Zm154.58-11.42c6.08,2.93,6.07,3,3.06,9.19-.5,1-1.13,2-1.87,3.29-5.6-2.46-10.72-4.84-16-6.88-1.2-.47-3.79-.24-4.13.45-3.39,7-6.45,14.09-9.77,21.56l22.13,10.07-4.94,10.62-32.83-15L660,147l32.7,14.73c-1.52,3.59-2.79,6.55-4.25,10l-22.27-9.78-10.72,23.29C660,187.3,664.48,189.32,668.91,191.46ZM720,741c5.79,8.34,8.56,9.21,18,5.68.94-.35,1.91-.62,2.82-1,6.29-2.81,12.85-6,19.48-2.09,8.44,4.93,15.49,11.59,18.63,21.25,2.5,7.71-1.55,16.91-9.12,21.84-7.35,4.8-17.56,4.35-23.8-1-1.64-1.4-3.49-2.56-5.43-4,3.43-3.48,5.83-5.93,8.45-8.6l3.16,2.67c4.7,4,8.51,3.94,12.76-.11s4.35-7.66.34-12.7c-1.14-1.43-2.54-2.64-3.68-4.07-4.29-5.35-9.39-6.22-15.48-3.21a76.12,76.12,0,0,1-9.27,3.63c-9.83,3.31-19.29-1.12-26.55-12.32q-8.56-13.2,1.8-25.1a20,20,0,0,1,23.72-4.52c3.23,1.63,5.82,4.52,9.29,7.33l-8.67,7.56c-1.69-1.35-3-2.61-4.51-3.58-4.26-2.77-7.76-2.37-11.22,1.13S717,736.62,720,741ZM650.93,855.37c1.92,8.13,1.84,8.23-8.7,11.08-.6-2.37-1.27-4.72-1.78-7.11q-7.66-36-15.31-72.07c-.67-3.15-1.52-5.86,2.72-7.66s6-.56,8.54,2.77c14.79,19.84,29.85,39.47,44.8,59.18,1.3,1.7,2.53,3.45,4.24,5.81L675.35,852c-2.54-3.37-5.43-6.59-7.58-10.23-2.39-4.06-4.59-4.82-9.06-2.56C648.42,844.42,648.27,844.12,650.93,855.37Zm-73.29,1.79c2.14,8.7,4.13,17.43,6.3,26.64l-10.88,3.05c-2.95-12-5.85-23.73-8.69-35.47-3.48-14.36-6.66-28.81-10.48-43.09-1.24-4.62,1.15-5.2,4.23-5.8,2.8-.55,5.93-2.84,7,2.71,1.8,9.28,4.61,18.37,6.57,27.63.72,3.37,2.08,4.15,5.09,3.32,3.65-1,7.32-1.93,11.61-3.06-2.92-12.13-5.68-23.57-8.59-35.62l11-2.9c6.72,27.69,13.37,55,20.13,82.88l-11.06,2.84c-2.68-11.07-5.39-21.5-7.66-32-.9-4.16-2.31-5.41-6.69-4.24C575,846.81,575,846.58,577.64,857.16ZM402.56,735.48c3.76-2.88,7.45-2.8,11.63-1.2a235.89,235.89,0,0,0,85.41,15.36,250.15,250.15,0,0,0,180.18-77.09c9.15-9.55,17-20.4,25.06-30.94,2.77-3.62,5.52-6.54,10.74-7C659.14,731.58,524,787.09,402.56,735.48Zm104,107.61c.45,10.3.78,20.61,1.54,30.88.42,5.57,3.33,8.31,7.53,8.25,5.25-.09,8.24-3,8.29-9.05,0-5.8,4-4.4,7.28-4.77,4-.45,4.22,1.89,4.23,4.88,0,9.17-4.78,16.39-13.06,19.3-7.85,2.76-17.72.43-22-6.17a26.44,26.44,0,0,1-3.8-12.11c-1.06-15.94-1.72-31.9-2.16-47.87a18.46,18.46,0,0,1,11.73-18.06c8.42-3.12,16.93-1.31,22.42,4.89,4.12,4.65,5.33,10.19,4.63,16.84L522.9,831c-.49-2.2-.85-4.12-1.34-6-1.16-4.38-3.87-7-8.57-6.68-4.94.4-6.78,4-6.88,8.33C506,832.13,506.28,837.62,506.51,843.09Zm-58.09,28a25,25,0,0,1-3-.28c-10.06-1.51-10.06-1.52-13.36,7.86-.05.16-.08.32-.13.48-3.1,9-3.89,9.35-13.65,5.45,1.68-4.55,3.32-9.15,5.08-13.71q12-30.93,24-61.82c1.91-4.91,5.62-6.3,10.07-3.68a4.49,4.49,0,0,1,1.54,3.22c1.08,13.76,2,27.54,3,41.3.9,12.28,1.88,24.55,2.79,36.82.11,1.48,0,3,0,5.52a72.81,72.81,0,0,1-9.26-1.45c-.94-.27-1.91-2.09-2-3.28a103.26,103.26,0,0,1-.25-11C453.35,873.09,452,871.15,448.42,871.09Zm-.6-322.6a160.73,160.73,0,0,0-45-4.23c-19.31.71-38.69.61-57.44-5-24.43-7.37-42.44-21.25-48.45-47.69-7.56-33.27,7.85-60.57,35.1-77.33A119.93,119.93,0,0,1,393,396.48c14.84-.35,28.87,3.36,42.69,10.78l-11.28,20.28c-7-2.1-13.45-4.76-20.21-6-19.49-3.51-37.57,1.62-54.78,10.44-11.17,5.72-20.59,13.43-26.17,25-8.15,16.9-5.93,47,22.35,57.2,15.14,5.45,30.82,6.48,46.69,6.16,20.33-.42,40.7-.79,60.49,4.76,23.31,6.54,42,18.93,49.05,43.58,6.28,21.81,1.07,41.78-11.85,59.95-15.62,22-37.66,33.65-63.62,38.21-23.29,4.09-45.84,1.56-66.27-11.3-5.94-3.74-10.95-9-17-14l19.57-15.33c7.75,8.86,17.53,14.09,28.84,16.52,29.42,6.33,66.55-4.59,83.3-35C488.47,583,476.28,555.61,447.82,548.49ZM671.88,768.27A71.46,71.46,0,0,0,665,772.9c-3.8,3.27-6.43,2.38-8.49-1.84-.58-1.18-1.31-2.29-2.28-4l33-22.05,6,8.66c-2.88,2.07-5.42,4.13-8.2,5.8s-3.29,2.85-1.28,5.8c11.88,17.43,23.48,35,35.2,52.57,4,6,4.06,6-2,10-1,.64-2,1.22-3.65,2.27Zm25.26-191.54c-.76.21-2.82-1.9-3.27-3.26C688.32,556.75,683,540,677.54,523.2c-6.27-19.28-12.66-38.52-18.86-57.83-1-3.2-2.35-4.19-5.71-3.09q-61.37,20.1-122.8,40c-.93.3-1.81.77-3.21,1.38.6,2.25,1.08,4.46,1.78,6.61Q546,563.41,563.4,616.5c.84,2.57.63,4-2.24,4.82-5.09,1.5-10.19,3.11-15.12,5.06-3.46,1.37-4.7.1-5.7-3q-7.92-25-16.08-49.84-19.23-59-38.51-118c-8.49-26.08-16.86-52.21-25.49-78.25-1.26-3.79-.55-5.33,3.24-6.39,5.73-1.59,11.33-3.68,17.81-5.83,4.53,13.9,8.84,27.15,13.17,40.39,7.75,23.69,15.58,47.37,23.21,71.1,1.13,3.53,2.45,4.25,6,3.07q59.91-19.76,119.92-39.22c1.86-.61,3.64-1.45,6-2.41-12.5-38.45-24.93-76.65-37.53-115.39L634.68,315l83.19,255.18C710.89,572.43,704.08,574.8,697.14,576.73Zm-70.7-420a4.36,4.36,0,0,1-3.42,2.23c-2.75-.27-5.42-1.28-8.46-2.08.5-2.33,1-3.94,1.18-5.58a8.36,8.36,0,0,0-5.9-9.2c-4.64-1.38-7.56.87-8.89,4.91-2.18,6.61-4,13.36-5.75,20.09-2.43,9.13-5,18.25-7,27.47-1.09,5.07,1.16,8,5.63,8.92a8.23,8.23,0,0,0,9.74-5.67c.47-1.36.85-2.75,1.36-4.43l10.26,2.5c.67,10.84-9.1,20.23-20.59,19.58s-19.9-8.83-18.22-20.14c1.53-10.29,4.69-20.35,7.26-30.47,1.83-7.23,3.62-14.49,5.91-21.58a19,19,0,0,1,24.77-12.11C625.16,135,630.56,146.21,626.44,156.7ZM356.14,245l-10,6.07-44.05-73.58,10.18-5.84Zm-98.6,87.46a5.69,5.69,0,0,1-.4,1.52c-6.76,10.5-3.18,8.91-14.71,5.21-10.55-3.38-6.92-4.51-13.11,4.8-.83,1.24-1.49,2.6-2.34,3.82-1.47,2.14-1.33,3.8.78,5.58,3.8,3.21,7.37,6.67,11.44,10.4l-6.32,9.71-63.17-60.8,5.35-8.2ZM178,633.66q15.35-60.39,30.65-120.78,7.57-29.92,15-59.87c.73-3,2-4.9,5.15-5.85,9-2.7,17.91-5.73,27.13-8.71,27.75,85.15,55.37,169.88,83.23,255.34l-22.62,7.36c-2.67-8-5.32-15.83-7.88-23.67-4-12.15-8-24.3-11.83-36.49-.9-2.82-2.25-3.55-5.16-2.59-29.65,9.75-59.22,19.74-89.07,28.84-7.77,2.37-10.16,6.52-11.82,13.84-4.81,21.19-10.62,42.16-16.14,63.18-.38,1.43-1.43,3.35-2.63,3.79-7.91,2.91-15.95,5.47-25,8.51,1.62-6.83,2.94-12.74,4.43-18.6Q164.65,685.81,178,633.66ZM651.55,917.22c-195.79,70.85-389.5-6.8-492.21-132.26l25.4-8.27C195,786.77,205,797,215.42,806.74A404.14,404.14,0,0,0,293,863.42,418.77,418.77,0,0,0,448.6,915.15a410.22,410.22,0,0,0,145.76-7.8A417.35,417.35,0,0,0,849.12,729.66a410.93,410.93,0,0,0,46-93.81c10-29.22,17.24-59,20.19-89.81.31-3.24,2-4.72,4.71-5.59l22.36-7.1C932.57,684.66,833.47,851.39,651.55,917.22ZM916.13,505.4c-1.19.34-3.19-1.4-4.54-2.51q-26.91-22.25-53.7-44.62c-2.41-2-4.5-3.18-8-2-31.87,10.56-63.81,20.87-95.73,31.27a21.27,21.27,0,0,0-2.33,1.2l20.52,63.63L750,559.78,666.84,304.62c10.12-3.25,19.41-6.36,28.8-9.11,1.38-.4,3.62.46,4.85,1.48q49.59,41,99.06,82.13,54.33,45,108.76,89.92,14.61,12.07,29.2,24.16c1.27,1.05,2.61,2,5,3.84C932.75,500.19,924.51,503,916.13,505.4Zm10.83-127c4.14,15.22,7,30.78,10.68,46.15.78,3.34-.16,4.84-3.42,5.77-6.84,1.94-13.58,4.23-20.25,6.33C891,308,826,207.52,713.89,140.58,607.11,76.82,492.32,63,373.71,100.61,251.41,139.39,164,219.55,114.11,337.76S70.68,573.54,126,689.68c-7.5,2.41-15,5-22.56,7-.92.24-3.07-2.05-3.83-3.58a423.55,423.55,0,0,1-25.32-64.44A439.75,439.75,0,0,1,55.67,474.86a433.06,433.06,0,0,1,21.87-114.3,448.22,448.22,0,0,1,75.24-138.7A437.13,437.13,0,0,1,293,106.14a447,447,0,0,1,155.35-48,422.78,422.78,0,0,1,75.75-2.39,441.67,441.67,0,0,1,99,17.17A456.72,456.72,0,0,1,715,111.09,443.81,443.81,0,0,1,797.71,170a438.1,438.1,0,0,1,77.35,91.63A426.14,426.14,0,0,1,927,378.39Z"/><path class="cls-4" d="M797.71,170A443.81,443.81,0,0,0,715,111.09a456.72,456.72,0,0,0-91.89-38.2,441.67,441.67,0,0,0-99-17.17,422.78,422.78,0,0,0-75.75,2.39,447,447,0,0,0-155.35,48A437.13,437.13,0,0,0,152.78,221.86a448.22,448.22,0,0,0-75.24,138.7,433.06,433.06,0,0,0-21.87,114.3A439.75,439.75,0,0,0,74.31,628.68a423.55,423.55,0,0,0,25.32,64.44c.76,1.53,2.91,3.82,3.83,3.58,7.6-2.05,15.06-4.61,22.56-7C70.68,573.54,64.17,456,114.11,337.76s137.3-198.37,259.6-237.15c118.61-37.61,233.4-23.79,340.18,40C826,207.52,891,308,914,436.64c6.67-2.1,13.41-4.39,20.25-6.33,3.26-.93,4.2-2.43,3.42-5.77C934,409.17,931.1,393.61,927,378.39a426.14,426.14,0,0,0-51.9-116.72A438.1,438.1,0,0,0,797.71,170Z"/><path class="cls-4" d="M915.36,546c-3,30.78-10.21,60.59-20.19,89.81a410.93,410.93,0,0,1-46,93.81A417.35,417.35,0,0,1,594.36,907.35a410.22,410.22,0,0,1-145.76,7.8A418.77,418.77,0,0,1,293,863.42a404.14,404.14,0,0,1-77.53-56.68c-10.42-9.76-20.42-20-30.68-30L159.34,785C262.05,910.42,455.76,988.07,651.55,917.22c181.92-65.83,281-232.56,290.88-383.87l-22.36,7.1C917.33,541.32,915.67,542.8,915.36,546Z"/><path class="cls-2" d="M147,756.56c9.09-3,17.13-5.6,25-8.51,1.2-.44,2.25-2.36,2.63-3.79,5.52-21,11.33-42,16.14-63.18,1.66-7.32,4-11.47,11.82-13.84,29.85-9.1,59.42-19.09,89.07-28.84,2.91-1,4.26-.23,5.16,2.59,3.87,12.19,7.85,24.34,11.83,36.49,2.56,7.84,5.21,15.66,7.88,23.67l22.62-7.36c-27.86-85.46-55.48-170.19-83.23-255.34-9.22,3-18.12,6-27.13,8.71-3.18.95-4.42,2.88-5.15,5.85q-7.42,30-15,59.87-15.3,60.4-30.65,120.78Q164.7,685.82,151.39,738C149.9,743.82,148.58,749.73,147,756.56Zm95.72-279.77c1.12,2.54,1.8,3.81,2.24,5.15Q266,546.53,287.12,611.1c1,3.1-.39,3.67-2.76,4.43q-27,8.67-54,17.52c-9.58,3.13-19.15,6.31-30,9.88Z"/><path class="cls-4" d="M612.12,322.53c12.6,38.74,25,76.94,37.53,115.39-2.36,1-4.14,1.8-6,2.41q-60,19.59-119.92,39.22c-3.59,1.18-4.91.46-6-3.07-7.63-23.73-15.46-47.41-23.21-71.1-4.33-13.24-8.64-26.49-13.17-40.39-6.48,2.15-12.08,4.24-17.81,5.83-3.79,1.06-4.5,2.6-3.24,6.39,8.63,26,17,52.17,25.49,78.25q19.23,59,38.51,118.05,8.12,24.88,16.08,49.84c1,3.13,2.24,4.4,5.7,3,4.93-2,10-3.56,15.12-5.06,2.87-.84,3.08-2.25,2.24-4.82Q546,563.42,528.74,510.29c-.7-2.15-1.18-4.36-1.78-6.61,1.4-.61,2.28-1.08,3.21-1.38q61.41-20,122.8-40c3.36-1.1,4.68-.11,5.71,3.09,6.2,19.31,12.59,38.55,18.86,57.83,5.45,16.75,10.78,33.55,16.33,50.27.45,1.36,2.51,3.47,3.27,3.26,6.94-1.93,13.75-4.3,20.73-6.58L634.68,315Z"/><path class="cls-4" d="M908.31,469q-54.37-45-108.76-89.92Q750,338.08,700.49,297c-1.23-1-3.47-1.88-4.85-1.48-9.39,2.75-18.68,5.86-28.8,9.11L750,559.78l22.33-7.43-20.52-63.63a21.27,21.27,0,0,1,2.33-1.2c31.92-10.4,63.86-20.71,95.73-31.27,3.5-1.16,5.59,0,8,2q26.79,22.38,53.7,44.62c1.35,1.11,3.35,2.85,4.54,2.51,8.38-2.37,16.62-5.21,26.33-8.36-2.34-1.81-3.68-2.79-5-3.84Q922.9,481.14,908.31,469Zm-79.8-30.78c-26.54,8.68-53.11,17.27-79.61,26.08-3.52,1.17-5,.59-6.15-3q-21-64.74-42.13-129.41a23.92,23.92,0,0,1-.56-2.8l1-.67L831.62,436.54A23.36,23.36,0,0,1,828.51,438.26Z"/><path class="cls-2" d="M391.51,642.75c-11.31-2.43-21.09-7.66-28.84-16.52L343.1,641.56c6.08,5.07,11.09,10.29,17,14,20.43,12.86,43,15.39,66.27,11.3,26-4.56,48-16.24,63.62-38.21,12.92-18.17,18.13-38.14,11.85-59.95-7.08-24.65-25.74-37-49.05-43.58-19.79-5.55-40.16-5.18-60.49-4.76-15.87.32-31.55-.71-46.69-6.16-28.28-10.17-30.5-40.3-22.35-57.2,5.58-11.6,15-19.31,26.17-25,17.21-8.82,35.29-13.95,54.78-10.44,6.76,1.22,13.25,3.88,20.21,6l11.28-20.28c-13.82-7.42-27.85-11.13-42.69-10.78A119.93,119.93,0,0,0,332,414.19c-27.25,16.76-42.66,44.06-35.1,77.33,6,26.44,24,40.32,48.45,47.69,18.75,5.66,38.13,5.76,57.44,5a160.73,160.73,0,0,1,45,4.23c28.46,7.12,40.65,34.53,27,59.29C458.06,638.16,420.93,649.08,391.51,642.75Z"/><path class="cls-2" d="M529.61,154.07H531q6.24,22,12.48,43.94c2.27,8,3.58,8.83,13,7.61q3.3-41.94,6.65-84.34l-11.59-1.13C550.19,137,548.9,153.5,547.61,170l-1.33,0c-.55-1.72-1.17-3.41-1.65-5.15-3.89-14.25-8-28.45-11.53-42.78-1.59-6.41-6.46-2.77-9.76-3.71-.48-.14-2.72,3.17-2.88,5-1.86,21-3.49,42-5.13,63.05-.42,5.4-.66,10.81-1,16.56l11.46,1.2C527.09,187,528.35,170.53,529.61,154.07Z"/><path class="cls-2" d="M585.51,844c4.38-1.17,5.79.08,6.69,4.24,2.27,10.54,5,21,7.66,32l11.06-2.84c-6.76-27.83-13.41-55.19-20.13-82.88l-11,2.9c2.91,12,5.67,23.49,8.59,35.62-4.29,1.13-8,2.06-11.61,3.06-3,.83-4.37.05-5.09-3.32-2-9.26-4.77-18.35-6.57-27.63-1.08-5.55-4.21-3.26-7-2.71-3.08.6-5.47,1.18-4.23,5.8,3.82,14.28,7,28.73,10.48,43.09,2.84,11.74,5.74,23.45,8.69,35.47l10.88-3.05c-2.17-9.21-4.16-17.94-6.3-26.64C575,846.58,575,846.81,585.51,844Z"/><path class="cls-2" d="M715.58,634.61c-5.22.46-8,3.38-10.74,7-8.07,10.54-15.91,21.39-25.06,30.94A250.15,250.15,0,0,1,499.6,749.64a235.89,235.89,0,0,1-85.41-15.36c-4.18-1.6-7.87-1.68-11.63,1.2C524,787.09,659.14,731.58,715.58,634.61Z"/><path class="cls-2" d="M279.2,213.33a62.6,62.6,0,0,1,6,5,48.07,48.07,0,0,1,4.63-3.46c4.07-2.37,3.32-4.86.72-7.93-7.83-9.23-23.34-8.91-31.18.8-5.82,7.19-6.15,15.22-1.79,22.86,4.63,8.15,10.25,16,21.45,14.88a47.1,47.1,0,0,0,12.52-2.94c7.48-3,12.87-1,17,5.64.61,1,1.42,1.85,2.08,2.8,3.71,5.39,3.53,8.58-.65,12.23-4.82,4.2-8.09,4.05-13.05-.57-.94-.88-1.93-1.7-3-2.64l-8.69,7c1.48,1.86,2.51,3.37,3.75,4.67a19.92,19.92,0,0,0,22.84,4.29c9-4.27,14.55-12.37,13-20.4-2-10.27-8.32-18-16.51-24.11-6.51-4.84-13.39-1.86-20.07.17-.95.29-1.88.65-2.84.92-9.75,2.7-12.78,1.39-17.73-7.53-2.05-3.69-1.63-7.08,1.18-10.08C271.83,211.69,275.43,211,279.2,213.33Z"/><path class="cls-2" d="M229.85,257.74c2.54,1.09,4.92,2.56,7.64,4l7.33-8.12c-9.42-9.67-20.54-11-29.61-3.85-8.53,6.77-10.4,18.31-3.74,27.66,5.69,8,13,14.21,23.78,12.46,4-.65,7.8-2.72,11.48-4.57,10.53-5.28,11.81-5.17,20.36,3.14a28.51,28.51,0,0,1,2.35,2.57c3.09,3.87,3,7.39-.18,11.23-3,3.61-7.09,4.46-11.14,2.19-1.56-.88-3-2-4.87-3.27l-7,8.27c7.22,8.72,18.1,10.41,27.47,4.49,8.28-5.22,12.29-16.52,8.13-24.76a39.5,39.5,0,0,0-20.5-18.74,14.65,14.65,0,0,0-9.17-.17A56.33,56.33,0,0,0,239.51,276c-8.87,5.3-14.26,1.37-19.22-6.6-1.23-2-.33-6.17,1-8.6A6.49,6.49,0,0,1,229.85,257.74Z"/><path class="cls-2" d="M360.33,159.83c3.51-1.22,6.93-1,9.42,2.34,1.47,2,2.86,4,4.42,6.12l9.61-4c-2.83-11.45-11.61-18.18-21.49-16.82-15,2.07-23,14.69-17.46,28.75,6,15.17,11.26,17.83,23.93,17.19,3.16-.16,6.41-.46,9.46.13,2.39.47,5.34,1.65,6.62,3.5A39.2,39.2,0,0,1,390,208.29c1.5,5.15-1,9.07-6.09,10.82-4.56,1.57-8,.06-10.62-4.7-.63-1.12-1.33-2.2-2.21-3.66l-10.38,4.48c1.41,2.87,2.31,5.2,3.6,7.27,4.46,7.14,13.76,10.41,22.29,8,9.71-2.75,15.52-9.37,15.39-18.34-.13-9.44-3.86-17.74-9.62-25.08-2.94-3.75-7.06-5.33-11.88-5.19-3.82.12-7.71-.4-11.47.1-9.51,1.27-13.12-6.88-13.89-14A7.3,7.3,0,0,1,360.33,159.83Z"/><path class="cls-2" d="M731.91,728.71c1.5,1,2.82,2.23,4.51,3.58l8.67-7.56c-3.47-2.81-6.06-5.7-9.29-7.33a20,20,0,0,0-23.72,4.52q-10.37,11.88-1.8,25.1c7.26,11.2,16.72,15.63,26.55,12.32a76.12,76.12,0,0,0,9.27-3.63c6.09-3,11.19-2.14,15.48,3.21,1.14,1.43,2.54,2.64,3.68,4.07,4,5,3.89,8.67-.34,12.7s-8.06,4.08-12.76.11L749,773.13c-2.62,2.67-5,5.12-8.45,8.6,1.94,1.4,3.79,2.56,5.43,4,6.24,5.31,16.45,5.76,23.8,1,7.57-4.93,11.62-14.13,9.12-21.84-3.14-9.66-10.19-16.32-18.63-21.25-6.63-3.88-13.19-.72-19.48,2.09-.91.4-1.88.67-2.82,1-9.42,3.53-12.19,2.66-18-5.68-3-4.37-2.83-7.56.7-11.15S727.65,725.94,731.91,728.71Z"/><path class="cls-2" d="M169.71,312.68l63.17,60.8,6.32-9.71c-4.07-3.73-7.64-7.19-11.44-10.4-2.11-1.78-2.25-3.44-.78-5.58.85-1.22,1.51-2.58,2.34-3.82,6.19-9.31,2.56-8.18,13.11-4.8,11.53,3.7,7.95,5.29,14.71-5.21a5.69,5.69,0,0,0,.4-1.52l-82.48-28Zm24.89,8.77,29.06,10.82c-2.44,3.88-4.5,7.15-6.9,11L194,322.66C194.19,322.26,194.39,321.85,194.6,321.45Z"/><path class="cls-2" d="M469.82,188.14c5.07-.64,10.24-1.65,15.23-1.13,1.46.16,2.71,4.82,3.56,7.56,3.18,10.27,3.11,10.29,14.37,8-2.62-7.79-5.11-15.18-7.58-22.57-6.2-18.58-12.51-37.13-18.51-55.78-1.3-4-3.66-4.31-7.12-4s-4.48,2.2-4.84,5.45c-2.53,22.61-5.26,45.2-7.86,67.8-.54,4.65-.82,9.33-1.21,13.91,2.45,0,3.95,0,5.44,0,4.1.09,6.54-1.1,6.21-6-.24-3.6.52-7.28,1-10.9C468.61,189.63,469.27,188.21,469.82,188.14Zm2.56-42,1.35-.27c.51,1.55,1,3.09,1.52,4.65,2.08,6.79,4,13.62,6.25,20.37,1.1,3.35.55,5.07-3.32,5-2.6,0-5.21.27-8.53.46C470.61,165.77,471.5,156,472.38,146.16Z"/><path class="cls-2" d="M658.71,839.2c4.47-2.26,6.67-1.5,9.06,2.56,2.15,3.64,5,6.86,7.58,10.23l10.09-4.62c-1.71-2.36-2.94-4.11-4.24-5.81-15-19.71-30-39.34-44.8-59.18-2.49-3.33-4.43-4.52-8.54-2.77s-3.39,4.51-2.72,7.66q7.68,36,15.31,72.07c.51,2.39,1.18,4.74,1.78,7.11,10.54-2.85,10.62-3,8.7-11.08C648.27,844.12,648.42,844.42,658.71,839.2Zm-13.2-5.77-7.37-30.55,1.28-.56,18.29,25.54Z"/><path class="cls-2" d="M453.52,887.52c.1,1.19,1.07,3,2,3.28a72.81,72.81,0,0,0,9.26,1.45c0-2.55.09-4,0-5.52-.91-12.27-1.89-24.54-2.79-36.82-1-13.76-1.94-27.54-3-41.3a4.49,4.49,0,0,0-1.54-3.22c-4.45-2.62-8.16-1.23-10.07,3.68q-12,30.9-24,61.82c-1.76,4.56-3.4,9.16-5.08,13.71,9.76,3.9,10.55,3.55,13.65-5.45.05-.16.08-.32.13-.48,3.3-9.38,3.3-9.37,13.36-7.86a25,25,0,0,0,3,.28c3.61.06,4.93,2,4.85,5.44A103.26,103.26,0,0,0,453.52,887.52Zm-2.13-26.7-12.29-1.74,10.31-29.27,2,.35Z"/><path class="cls-2" d="M688.4,171.67c1.46-3.44,2.73-6.4,4.25-10L660,147l-35.36,77.82,32.83,15,4.94-10.62-22.13-10.07c3.32-7.47,6.38-14.6,9.77-21.56.34-.69,2.93-.92,4.13-.45,5.25,2,10.37,4.42,16,6.88.74-1.3,1.37-2.26,1.87-3.29,3-6.21,3-6.26-3.06-9.19-4.43-2.14-8.92-4.16-13.5-6.28l10.72-23.29Z"/><path class="cls-2" d="M614.35,131.14a19,19,0,0,0-24.77,12.11c-2.29,7.09-4.08,14.35-5.91,21.58C581.1,175,577.94,185,576.41,195.3c-1.68,11.31,6.58,19.48,18.22,20.14s21.26-8.74,20.59-19.58L605,193.36c-.51,1.68-.89,3.07-1.36,4.43a8.23,8.23,0,0,1-9.74,5.67c-4.47-1-6.72-3.85-5.63-8.92,2-9.22,4.54-18.34,7-27.47,1.8-6.73,3.57-13.48,5.75-20.09,1.33-4,4.25-6.29,8.89-4.91a8.36,8.36,0,0,1,5.9,9.2c-.21,1.64-.68,3.25-1.18,5.58,3,.8,5.71,1.81,8.46,2.08a4.36,4.36,0,0,0,3.42-2.23C630.56,146.21,625.16,135,614.35,131.14Z"/><path class="cls-2" d="M295.18,347.72c4.46-.3,7.69-2.32,10.59-5.49.41-.46.82-.93,1.23-1.43,22.93-28.35,51.11-50.28,83.76-66.28,34.43-16.88,71.1-25,109.37-25a227.43,227.43,0,0,1,63,8.46c4.88,1.41,9.68,2.27,14.76-1.22A241.68,241.68,0,0,0,521.6,245q-5.13-.45-10.26-.69a251,251,0,0,0-30.56.48q-5.05.39-10.07,1-10,1.17-19.9,3.13C386.77,261.53,329.43,298,295.18,347.72Z"/><path d="M295.18,347.72h0c4.46-.3,7.69-2.32,10.59-5.49C302.87,345.4,299.64,347.42,295.18,347.72Z"/><path d="M511.34,244.3q5.13.24,10.26.69Q516.47,244.54,511.34,244.3Z"/><path class="cls-2" d="M513,818.33c4.7-.37,7.41,2.3,8.57,6.68.49,1.88.85,3.8,1.34,6l10.29-.91c.7-6.65-.51-12.19-4.63-16.84-5.49-6.2-14-8-22.42-4.89a18.46,18.46,0,0,0-11.73,18.06c.44,16,1.1,31.93,2.16,47.87a26.44,26.44,0,0,0,3.8,12.11c4.23,6.6,14.1,8.93,22,6.17,8.28-2.91,13.1-10.13,13.06-19.3,0-3-.22-5.33-4.23-4.88-3.3.37-7.23-1-7.28,4.77,0,6.08-3,9-8.29,9.05-4.2.06-7.11-2.68-7.53-8.25-.76-10.27-1.09-20.58-1.54-30.88-.23-5.47-.53-11-.4-16.43C506.21,822.31,508.05,818.73,513,818.33Z"/><path class="cls-2" d="M434.84,125.07l-38.58,9.68c.88,3.73,1.65,7,2.46,10.48l14-3c6.07,24.3,12,48,18,72.09l11.3-2.69c-6-24.5-11.93-48.38-17.83-72.29l13.88-3.79Z"/><path class="cls-2" d="M716.89,827.92c6.07-4,6-4,2-10-11.72-17.53-23.32-35.14-35.2-52.57-2-2.95-1.39-4.19,1.28-5.8s5.32-3.73,8.2-5.8l-6-8.66-33,22.05c1,1.67,1.7,2.78,2.28,4,2.06,4.22,4.69,5.11,8.49,1.84a71.46,71.46,0,0,1,6.86-4.63l41.36,61.92C714.93,829.14,715.93,828.56,716.89,827.92Z"/><path class="cls-2" d="M302.09,177.47l44.05,73.58,10-6.07-43.87-73.35Z"/><path class="cls-3" d="M284.36,615.53c2.37-.76,3.78-1.33,2.76-4.43q-21.19-64.54-42.2-129.16c-.44-1.34-1.12-2.61-2.24-5.15L200.37,642.93c10.83-3.57,20.4-6.75,30-9.88Q257.35,624.24,284.36,615.53Z"/><path class="cls-3" d="M700.06,329.16a23.92,23.92,0,0,0,.56,2.8q21.07,64.69,42.13,129.41c1.16,3.56,2.63,4.14,6.15,3,26.5-8.81,53.07-17.4,79.61-26.08a23.36,23.36,0,0,0,3.11-1.72L701,328.49Z"/><path class="cls-3" d="M223.66,332.27,194.6,321.45c-.21.4-.41.81-.61,1.21l22.77,20.59C219.16,339.42,221.22,336.15,223.66,332.27Z"/><path class="cls-3" d="M481.5,170.91c-2.22-6.75-4.17-13.58-6.25-20.37-.48-1.56-1-3.1-1.52-4.65l-1.35.27c-.88,9.8-1.77,19.61-2.73,30.25,3.32-.19,5.93-.48,8.53-.46C482.05,176,482.6,174.26,481.5,170.91Z"/><path class="cls-3" d="M639.42,802.32l-1.28.56,7.37,30.55,12.2-5.57Z"/><path class="cls-3" d="M439.1,859.08l12.29,1.74V830.16l-2-.35Z"/></g></g></svg>