<svg xmlns="http://www.w3.org/2000/svg" viewBox="0 0 467.9 402.62"><defs><style>.cls-1{fill:#20e809;}</style></defs><title>icone-feuille2Fichier 1</title><g id="Calque_2" data-name="Calque 2"><g id="Calque_1-2" data-name="Calque 1"><path class="cls-1" d="M252.52,256.05q15.9-9.21,31.8-18.41c7.49-4.33,15.3-8.19,22.48-13,16.68-11.13,35.45-6.08,44.24,12.43q9.9-5.64,19.76-11.23c5.63-3.19,11.53-5,18.14-4,11.47,1.81,18.84,8.47,23.18,19.88L424.41,234c18.34-11.61,40-2.28,43.17,19.1,1.68,11.37-3.34,20.43-13,26.68q-37.77,24.39-75.6,48.68c-32.62,21-65.33,41.86-97.84,63-19.22,12.51-39.53,14.31-60.54,6.29-38.52-14.69-76.87-29.85-115.19-45.06-8.77-3.47-17.06-3.54-25.57.37-9.51,4.38-19.08,8.61-29.19,13.15-1.42-3-2.82-5.7-4.07-8.51-15.2-34-30.32-68.07-45.64-102-1.66-3.69-1.2-5.42,2.46-7.27,21.67-10.95,42.76-23.2,65-32.94,32.31-14.18,63.46-10.72,92.55,10.12,20.44,14.64,41.33,28.65,62.18,42.71a18.54,18.54,0,0,0,9.18,2.89c24,1,47.94,1.58,71.91,2.38,11.95.4,21.69,8.85,23,19.73,1.48,12.36-5.18,23-16.72,26.05a59.41,59.41,0,0,1-11.87,1.38c-26.93,1.44-53.87,3-80.82,4a50.23,50.23,0,0,1-18.36-3.31c-15-5.44-29.71-11.68-44.55-17.58-1.34-.53-2.73-.95-4.85-1.68a32.3,32.3,0,0,0,1.14,4.25c3.18,7.22,7.81,13.7,14.94,16.88,12.85,5.73,26.16,10.47,39.36,15.37a20.85,20.85,0,0,0,7.9.78q38.67-1.7,77.34-3.6c6-.3,12-.59,17.91-1.39,19.3-2.62,33.72-19.71,32.77-38.54A38.53,38.53,0,0,0,303.84,259c-17-.48-33.94-1.19-50.91-1.79Z"/><path class="cls-1" d="M114.6,112.49c0-2.83-.65-5.86.13-8.45,2.15-7.16-1.34-11.5-5.9-16.44C90.15,67.31,80,42.74,74.74,16,73.21,8.24,77.85,1.51,85,.26,92.81-1.12,99.37,3.09,100.88,11,111.8,68,150.6,98.42,202,116.17c23.18,8,47.43,10,71.94,7.21a29.68,29.68,0,0,0,5.88-1C281,122,282,120.8,283,120c-1.17-.7-2.29-1.85-3.53-2a251,251,0,0,1-65.38-17.21c-23.28-9.76-44.67-22.39-61-42.14-3.9-4.71-7-10.11-10.47-15.18-1.55-2.25-1.38-4,.65-6.1,14.52-14.89,32.3-22.37,52.84-23.93,24.54-1.86,45.67,6.09,64.69,21.32,11.93,9.56,23.87,19.4,37,27.11,25.3,14.86,52.35,14.23,79.53,5.14,5.18-1.73,10-4.57,15.16-6.31,2.56-.86,6.43-1.48,8.14-.17s2.42,5.37,1.89,7.87c-4.67,21.75-16.86,39.38-32.17,54.79-37.92,38.19-83.56,61.45-137,68.95-23.76,3.33-47.2,2.12-69.81-6.52C131.51,173.37,114.55,147.89,114.6,112.49Z"/></g></g></svg>